Coordinates
version=1
nRows=9
nColumns=36
inDegrees=yes

Units are S.I. units (second, meters, Newtons, ...)
If the header above contains a line with 'inDegrees', this indicates whether rotational values are in degrees (yes) or radians (no).

endheader
time	pelvis_tilt	pelvis_list	pelvis_rotation	pelvis_tx	pelvis_ty	pelvis_tz	hip_flexion_r	hip_adduction_r	hip_rotation_r	knee_angle_r	knee_angle_r_beta	ankle_angle_r	subtalar_angle_r	mtp_angle_r	hip_flexion_l	hip_adduction_l	hip_rotation_l	knee_angle_l	knee_angle_l_beta	ankle_angle_l	subtalar_angle_l	mtp_angle_l	lumbar_extension	lumbar_bending	lumbar_rotation	arm_flex_r	arm_add_r	arm_rot_r	elbow_flex_r	pro_sup_r	arm_flex_l	arm_add_l	arm_rot_l	elbow_flex_l	pro_sup_l
      4.45000000	    -11.27805753	      0.69638135	      2.98355990	      0.39445573	      0.84548012	     -0.15263741	     35.66233626	     -3.38261573	      1.63339504	     48.92016120	      0.85381788	     20.72908990	    -19.26344682	     -7.49999987	     37.26335520	     -0.38973229	      5.60938974	     51.35364237	      0.89629014	     19.21268376	    -16.90002690	     -7.49999987	     -6.46609144	     -0.65231416	     -0.72112887	      6.66315249	    -17.95153484	     -9.50948083	     33.88083946	     70.49700931	     10.79295258	    -21.92225191	      9.64038194	     38.29327976	     69.11427357
      4.45416670	    -11.09223747	      0.78637985	      2.97447280	      0.39363338	      0.84935983	     -0.15173239	     35.08424171	     -3.57043053	      1.50538487	     48.01473812	      0.83801527	     20.13200360	    -19.30345693	     -7.49999987	     36.62509700	     -0.22497795	      5.55856710	     50.40170627	      0.87967572	     18.37126523	    -17.13500038	     -7.49999987	     -6.68569041	     -0.64775312	     -0.79497272	      7.14115993	    -18.12563138	     -9.26988437	     34.06113227	     70.48052320	     11.21397665	    -21.75724964	      9.86587684	     38.36870170	     69.02478247
      4.45833330	    -11.18175747	      0.76977462	      3.01529104	      0.39373185	      0.84703559	     -0.15235448	     35.07155406	     -3.69500018	      1.30499174	     47.74207001	      0.83325631	     20.38848191	    -18.94683521	     -7.49999987	     36.63032213	     -0.26334587	      5.34825039	     50.12228816	      0.87479896	     18.60345487	    -16.87907307	     -7.49999987	     -6.44993531	     -0.61099156	     -0.84814034	      7.38348217	    -18.31808459	     -9.28955904	     34.49952983	     70.41629222	     11.48934349	    -21.70466872	      9.87000118	     38.77381000	     68.96890369
      4.46250000	    -11.39362372	      0.87225475	      3.17841623	      0.39469775	      0.84753072	     -0.15420811	     35.13754139	     -4.06553190	      1.02802011	     47.53135372	      0.82957862	     20.55670671	    -18.70781671	     -7.49999987	     36.65582649	     -0.00029719	      5.31699032	     49.78979487	      0.86899585	     18.79859689	    -16.71213982	     -7.49999987	     -6.16301547	     -0.58496608	     -0.93739563	      7.29720105	    -18.56956508	     -9.30360004	     35.47908529	     69.94683079	     11.51029453	    -21.56161428	      9.89262178	     39.80030936	     68.55375079
      4.46666670	    -11.04212560	      0.94174216	      3.41625369	      0.39466225	      0.85267311	     -0.15511386	     34.21198123	     -4.31190702	      0.81760685	     46.54415530	      0.81234876	     20.20774176	    -18.26553464	     -7.49999987	     35.82749782	      0.32077590	      5.64549979	     48.83929094	      0.85240643	     17.59216864	    -17.69705463	     -7.49999987	     -6.35509723	     -0.60380125	     -1.10619223	      7.95100661	    -18.80239822	     -9.07534654	     34.76661865	     70.26694032	     12.36460529	    -21.32020608	     10.48118325	     39.04747164	     68.75790605
      4.47083330	    -11.07098223	      0.96131229	      3.58251080	      0.39518450	      0.85289682	     -0.15483608	     33.74659730	     -4.40873389	      0.70613909	     45.66901166	      0.79707462	     20.30203409	    -17.71382486	     -7.49999987	     35.44828430	      0.46604857	      5.77641482	     48.19003747	      0.84107482	     17.13807080	    -17.99224122	     -7.49999987	     -6.05986136	     -0.57369259	     -1.19481697	      8.03481886	    -18.99362523	     -9.06937311	     35.12444465	     70.07957397	     12.65620318	    -21.24877174	     10.67550201	     39.34038043	     68.56126631
      4.47500000	    -11.11645397	      0.98754681	      3.68206982	      0.39440627	      0.85590442	     -0.15510510	     33.40145401	     -4.42907911	      0.73085609	     44.88452430	      0.78338273	     20.22716946	    -17.33272512	     -7.49999987	     35.21556651	      0.54027604	      5.83698338	     47.56647639	      0.83019163	     16.54354519	    -18.36924327	     -7.49999987	     -5.92355489	     -0.58763744	     -1.12922003	      8.28062594	    -19.19837005	     -9.03558857	     35.35984030	     69.94086238	     13.04107904	    -21.20583969	     10.89169636	     39.58703327	     68.39869303
      4.47916670	    -11.06654480	      1.06685273	      3.79201007	      0.39625952	      0.85905638	     -0.15572713	     32.74000127	     -4.49010395	      0.80431302	     43.87448231	      0.76575417	     19.94224542	    -17.11573892	     -7.49999987	     34.67877147	      0.71229707	      6.00944817	     46.73025389	      0.81559679	     15.89240020	    -18.52387004	     -7.49999987	     -5.80445523	     -0.56774768	     -1.16931559	      8.47695316	    -19.25856615	     -8.94338951	     35.60064925	     69.51774353	     13.32022036	    -21.05149186	     11.01756322	     39.76181085	     67.96452856
      4.48333330	    -11.02672224	      1.08375834	      3.89339703	      0.39571037	      0.86314568	     -0.15629607	     31.98968044	     -4.47311367	      0.81797138	     42.54119619	      0.74248394	     19.25133819	    -17.02287776	     -7.49999987	     34.01918435	      0.77510391	      6.08957194	     45.42229171	      0.79276854	     15.04307179	    -18.58746946	     -7.49999987	     -5.70214581	     -0.52033657	     -1.12492777	      8.76483000	    -19.40547966	     -8.75460915	     35.57271698	     69.59436826	     13.69876109	    -20.85769111	     11.27876648	     39.72757993	     67.96009148
